<?xml version="1.0" encoding="utf-8"?>
<!-- Generator: Adobe Illustrator 27.5.0, SVG Export Plug-In . SVG Version: 6.00 Build 0)  -->
<svg version="1.1" id="PRINT" xmlns="http://www.w3.org/2000/svg" xmlns:xlink="http://www.w3.org/1999/xlink" x="0px" y="0px"
	 viewBox="0 0 500 500" style="enable-background:new 0 0 500 500;" xml:space="preserve">
<g>
	<rect id="CUSTOM-background" style="fill:#FFFFFF;" width="500" height="500"/>
	<g id="CUSTOM-group">
		<path style="fill:#DF8221;" d="M207.104,219.955l32.853-31.658l-22.4-33.45l-3.584-21.504l80.639,80.938
			c0,0,24.789-14.336,15.531-62.421c-9.259-48.085-70.186-49.877-95.274-31.658C189.781,138.419,170.069,170.078,207.104,219.955z"
			/>
		<g>
			<g>
				<g>
					<path style="fill:#881E09;" d="M230.57,192.015l-17.975,17.975c-1.337,1.337-1.337,3.505,0,4.842
						c0.668,0.669,1.545,1.003,2.421,1.003c0.876,0,1.753-0.334,2.421-1.003l17.975-17.975c1.337-1.337,1.337-3.505,0-4.842
						C234.075,190.678,231.907,190.678,230.57,192.015z"/>
					<path style="fill:#881E09;" d="M297.16,211.359l-37.914-38.219l5.427-5.425c4.806,2.897,11.034,3.27,13.902,3.27
						c0.731,0,1.244-0.024,1.46-0.037c0.981-0.056,1.89-0.531,2.497-1.304l14.831-18.894c1.168-1.487,0.908-3.64-0.579-4.807
						c-1.488-1.168-3.64-0.908-4.807,0.579l-13.822,17.609c-2.195-0.046-5.624-0.387-8.386-1.509l19.618-19.61
						c1.337-1.337,1.338-3.505,0.001-4.842c-1.337-1.338-3.505-1.338-4.842-0.001l-19.628,19.62
						c-1.124-2.743-1.466-6.145-1.509-8.382l17.942-13.806c1.499-1.153,1.779-3.303,0.626-4.801
						c-1.153-1.499-3.303-1.779-4.801-0.626l-19.253,14.815c-0.788,0.606-1.273,1.525-1.33,2.517
						c-0.061,1.061-0.405,9.34,3.236,15.371l-5.404,5.402l-37.498-37.799c-0.641-0.646-1.513-1.011-2.424-1.013
						c-0.002,0-0.005,0-0.007,0c-0.908,0-1.779,0.361-2.421,1.003l-0.51,0.51c-0.566,0.567-0.916,1.314-0.989,2.111
						c-0.094,1.038-0.139,2.11-0.132,3.185c0.07,11.369,5.717,24.692,16.785,39.598c8.09,10.895,16.05,18.487,16.385,18.805
						c0.733,0.696,1.736,1.032,2.74,0.919l6.756-0.76c1.879-0.211,3.231-1.906,3.02-3.785c-0.212-1.879-1.907-3.232-3.785-3.02
						l-5.133,0.577c-5.136-5.161-26.326-27.492-29.517-47.633l74.605,75.205c0.669,0.675,1.55,1.013,2.431,1.013
						c0.871,0,1.744-0.331,2.411-0.993C298.483,214.869,298.491,212.701,297.16,211.359z"/>
				</g>
			</g>
		</g>
		<path style="fill:#881E09;" d="M207.694,221.432c-0.733,0-1.467-0.261-2.054-0.791c-13.854-12.528-21.799-30.419-21.799-49.085
			c0-36.481,29.679-66.16,66.159-66.16c36.481,0,66.16,29.679,66.16,66.16c0,15.753-6.716,31.674-18.909,44.829
			c-1.15,1.241-3.089,1.314-4.33,0.164c-1.241-1.15-1.314-3.088-0.164-4.329c11.141-12.019,17.277-26.461,17.277-40.664
			c0-33.102-26.931-60.033-60.033-60.033c-33.102,0-60.032,26.931-60.032,60.033c0,16.938,7.21,33.173,19.782,44.541
			c1.255,1.135,1.352,3.072,0.218,4.327C209.362,221.092,208.53,221.432,207.694,221.432z"/>
	</g>
	<g id="CUSTOM-group_00000106839182024589786140000016576788802247988382_">
		<path style="fill:#DF8221;" d="M238.202,331.588h-36.985c-1.381,0-2.5-1.149-2.5-2.566c0-1.417,1.119-2.566,2.5-2.566h36.985
			c1.381,0,2.5,1.149,2.5,2.566C240.702,330.44,239.582,331.588,238.202,331.588z"/>
		<path style="fill:#DF8221;" d="M238.202,315.361H68.073c-1.381,0-2.5-1.149-2.5-2.566c0-1.417,1.119-2.566,2.5-2.566h170.129
			c1.381,0,2.5,1.149,2.5,2.566C240.702,314.213,239.582,315.361,238.202,315.361z"/>
	</g>
	
		<text transform="matrix(1 -0.0019 0.0019 1 88.0705 296.3432)" style="fill:#881E09; font-family:'RacingSansOne-Regular'; font-size:93.6175px;">Cheffest</text>
	<text transform="matrix(1 0 0 1 263.9043 330.9268)" style="fill:#DF8221; font-family:'Poppins-SemiBold'; font-size:23.8324px;">Fast food &amp; Grill</text>
</g>
</svg>
